# xmcd
#
# Track frame offsets: 
#        150
#        11822
#        38744
#        59291
#        89691
#        119596
#        141717
#        168701
#        196505
#
# Disc length: 2804 seconds
#
# Revision: 0
# Processed by: cddbd v1.5.2PL0 Copyright (c) Steve Scherf et al.
# Submitted via: ExactAudioCopy v0.99pb4
#
DISCID=830af209
DTITLE=Plain Old Folk - Live at Sebino Folk
DYEAR=1999
DGENRE=Old Time Music
TTITLE0=My Dixie Darling
TTITLE1=Mountaineer's Lovesong (Liza Jane)
TTITLE2=Big Balls in Town
TTITLE3=Short Life of Trouble
TTITLE4=Shady Grove
TTITLE5=Fly Around My Pretty Little Miss
TTITLE6=Springtime Brings On the Shearing
TTITLE7=[medley] Skip to My Lou - Miss McLeod's Reel
TTITLE8=Careless Love
EXTD=
EXTT0=
EXTT1=
EXTT2=
EXTT3=
EXTT4=
EXTT5=
EXTT6=
EXTT7=
EXTT8=
PLAYORDER=
